<?xml version="1.0" encoding="iso-8859-1"?>
<!-- Generator: Adobe Illustrator 19.0.0, SVG Export Plug-In . SVG Version: 6.00 Build 0)  -->
<svg xmlns="http://www.w3.org/2000/svg" xmlns:xlink="http://www.w3.org/1999/xlink" version="1.1" id="Layer_1" x="0px" y="0px" viewBox="0 0 512 512" style="enable-background:new 0 0 512 512;" xml:space="preserve" width="512px" height="512px">
<g>
	<g>
		<path d="M205.065,306.935c-3.06-3.061-8.023-3.061-11.084,0l-33.889,33.888c-3.061,3.062-3.061,8.024,0,11.085    c1.53,1.53,3.536,2.295,5.542,2.295s4.012-0.765,5.542-2.295l33.889-33.89C208.126,314.958,208.126,309.994,205.065,306.935z" fill="#888888"/>
	</g>
</g>
<g>
	<g>
		<path d="M353.053,161.525l-2.575-2.576c-6.413-6.413-14.965-9.945-24.084-9.944c-9.118,0-17.671,3.531-24.084,9.944    l-44.303,44.304c-6.413,6.414-9.944,14.965-9.944,24.084c-0.001,9.12,3.531,17.672,9.944,24.084l2.573,2.574    c6.64,6.64,15.363,9.961,24.084,9.961s17.444-3.321,24.084-9.961l10.231-10.23c3.061-3.062,3.061-8.024,0-11.085    c-3.061-3.06-8.024-3.06-11.084,0l-10.231,10.232c-7.168,7.167-18.832,7.166-25.998,0l-2.573-2.574    c-3.452-3.452-5.353-8.069-5.353-12.999c0-4.932,1.901-9.548,5.353-12.999l44.303-44.304c3.452-3.452,8.069-5.353,13-5.353    c4.931,0,9.548,1.901,13,5.353l2.573,2.573c3.452,3.452,5.353,8.068,5.353,13s-1.901,9.549-5.354,13l-7.945,7.946    c-3.061,3.061-3.061,8.024,0,11.084c3.061,3.062,8.023,3.061,11.085,0l7.945-7.945c6.413-6.413,9.945-14.965,9.945-24.085    C362.997,176.491,359.465,167.938,353.053,161.525z" fill="#888888"/>
	</g>
</g>
<g>
	<g>
		<path d="M406.483,0c-4.329,0-7.838,3.508-7.838,7.838c0,4.33,3.509,7.838,7.838,7.838c49.538,0,89.84,40.302,89.841,89.84    c0,4.33,3.509,7.838,7.838,7.838c4.329,0,7.838-3.508,7.838-7.838C512,47.334,464.665,0,406.483,0z" fill="#888888"/>
	</g>
</g>
<g>
	<g>
		<path d="M474.953,80.953c-1.463-4.073-5.953-6.188-10.027-4.724c-4.073,1.465-6.188,5.955-4.724,10.029    c2.219,6.17,3.343,12.65,3.343,19.259c0,4.33,3.508,7.838,7.838,7.838c4.329,0,7.838-3.508,7.838-7.837    C479.221,97.095,477.785,88.83,474.953,80.953z" fill="#888888"/>
	</g>
</g>
<g>
	<g>
		<path d="M454.472,50.892c-13.281-11.682-30.324-18.114-47.988-18.115c-4.329,0-7.838,3.509-7.838,7.838    c-0.001,4.33,3.508,7.838,7.837,7.838c13.851,0.001,27.217,5.048,37.636,14.211c1.489,1.309,3.335,1.952,5.173,1.952    c2.175,0,4.339-0.9,5.889-2.662C458.04,58.704,457.723,53.751,454.472,50.892z" fill="#888888"/>
	</g>
</g>
<g>
	<g>
		<path d="M406.483,65.556c-4.329,0-7.838,3.509-7.838,7.837s3.508,7.839,7.837,7.839c13.392,0,24.285,10.894,24.285,24.283    c0,4.33,3.509,7.838,7.838,7.838c4.329,0,7.838-3.508,7.838-7.838C446.443,83.484,428.516,65.556,406.483,65.556z" fill="#888888"/>
	</g>
</g>
<g>
	<g>
		<path d="M148.5,398.011l-34.51-34.511c-2.463-2.463-5.744-3.819-9.237-3.819c-3.494,0-6.774,1.355-9.237,3.819l-12.939,12.939    c-5.094,5.094-5.094,13.382,0,18.475l34.51,34.51c2.463,2.464,5.744,3.82,9.237,3.82c3.494,0,6.774-1.357,9.237-3.82    l12.939-12.938C153.593,411.392,153.593,403.103,148.5,398.011z M126.324,416.492l-30.816-30.815l9.245-9.245l30.816,30.815    L126.324,416.492z" fill="#888888"/>
	</g>
</g>
<g>
	<g>
		<path d="M457.426,235.04c-0.056-4.295-3.554-7.737-7.836-7.737c-0.034,0-0.069,0-0.104,0c-4.329,0.057-7.792,3.611-7.736,7.94    c0.548,42.066-14.291,81.796-41.961,112.972c-8.964-5.188-24.173-7.186-49.692,3.602c-3.987,1.686-5.853,6.285-4.168,10.271    c1.265,2.991,4.168,4.789,7.224,4.789c1.018,0,2.052-0.2,3.048-0.621c13.329-5.634,24.585-7.643,31.897-5.903l-87.086,87.086    c-20.984,20.983-46.207,35.202-72.936,42.677c10.706-21.675,28.878-45.983,51.572-68.677    c14.54-14.539,30.268-27.649,45.486-37.913c3.59-2.419,4.537-7.292,2.116-10.88c-2.419-3.589-7.293-4.537-10.88-2.116    c-16.037,10.817-32.569,24.587-47.806,39.827c-27.669,27.668-49.114,57.964-59.508,83.904    c-51.082,8.062-105.21-7.538-144.494-46.822c-31.579-31.579-48.97-73.566-48.97-118.225c0-8.871,0.697-17.635,2.045-26.234    c25.965-10.378,56.302-31.836,84.009-59.543c25.154-25.153,45.242-52.525,56.565-77.07c10.655-23.1,12.521-41.963,5.559-54.14    c30.593-27.147,69.554-41.993,110.802-41.993c42.037,0,81.703,15.414,112.552,43.561l-22.567,22.567    c-10.73-8.8-24.071-13.586-38.161-13.586c-16.118,0-31.256,6.262-42.626,17.631l-44.303,44.304    c-22.068,22.068-23.414,57.128-4.042,80.785l-20.538,20.538c-3.061,3.06-3.061,8.024,0,11.083c1.53,1.531,3.536,2.296,5.542,2.296    s4.012-0.765,5.542-2.296l20.535-20.534c10.73,8.799,24.07,13.585,38.161,13.585c16.118,0,31.256-6.261,42.626-17.631    l44.304-44.304c11.37-11.37,17.633-26.508,17.633-42.626c0-14.09-4.786-27.431-13.586-38.161l22.554-22.554    c19.695,21.614,33.356,47.863,39.644,76.402c0.931,4.227,5.116,6.902,9.341,5.968c4.227-0.932,6.9-5.114,5.967-9.341    c-7.492-34.012-24.529-65.065-49.266-89.801c-34.54-34.54-80.462-53.563-129.31-53.563c-48.844,0-94.771,19.025-129.309,53.562    l-91.788,91.785c-71.302,71.301-71.301,187.317,0,258.62c35.656,35.655,82.476,53.481,129.311,53.476    c46.824-0.004,93.663-17.83,129.309-53.476l91.784-91.782C439.057,331.564,458.073,284.791,457.426,235.04z M360.508,217.148    l-44.304,44.304c-8.409,8.409-19.611,13.039-31.541,13.039c-11.931,0-23.133-4.632-31.542-13.039l-2.573-2.573    c-17.392-17.393-17.392-45.693,0-63.083l44.303-44.304c8.41-8.41,19.612-13.042,31.542-13.042    c11.932,0,23.133,4.632,31.541,13.039l2.573,2.574c8.409,8.41,13.04,19.612,13.04,31.542    C373.548,197.538,368.918,208.739,360.508,217.148z M64.56,210.989l87.106-87.107c1.951,8.01-0.686,20.726-7.693,35.918    c-10.566,22.908-29.536,48.673-53.414,72.552c-22.741,22.741-47.095,40.922-68.803,51.618    C29.388,256.643,43.95,231.599,64.56,210.989z" fill="#888888"/>
	</g>
</g>
<g>
</g>
<g>
</g>
<g>
</g>
<g>
</g>
<g>
</g>
<g>
</g>
<g>
</g>
<g>
</g>
<g>
</g>
<g>
</g>
<g>
</g>
<g>
</g>
<g>
</g>
<g>
</g>
<g>
</g>
</svg>
