<?xml version="1.0" encoding="iso-8859-1"?>
<!-- Generator: Adobe Illustrator 19.0.0, SVG Export Plug-In . SVG Version: 6.00 Build 0)  -->
<svg xmlns="http://www.w3.org/2000/svg" xmlns:xlink="http://www.w3.org/1999/xlink" version="1.1" id="Layer_1" x="0px" y="0px" viewBox="0 0 511.998 511.998" style="enable-background:new 0 0 511.998 511.998;" xml:space="preserve" width="512px" height="512px">
<g>
	<g>
		<path d="M506.748,78.682l-73.4-73.389c-7.004-7.002-18.4-7.002-25.408,0.001l-36.285,36.279    c-6.775-2.664-14.792-1.272-20.256,4.192l-0.644,0.643c-2.703,2.703-4.474,6.094-5.17,9.782c-3.589,0.681-7.016,2.404-9.786,5.173    l-0.645,0.644c-2.77,2.771-4.494,6.199-5.174,9.788c-3.691,0.695-7.084,2.469-9.799,5.183l-0.625,0.627    c-3.554,3.552-5.511,8.287-5.511,13.333c0,2.413,0.459,4.748,1.314,6.923L23.764,389.404c-1.826,1.831-3.056,4.136-3.553,6.654    L0.251,496.413c-0.849,4.266,0.482,8.653,3.56,11.733c2.457,2.457,5.722,3.81,9.196,3.81h0.001c0.85,0,1.701-0.084,2.535-0.25    l100.379-19.954c2.534-0.505,4.838-1.738,6.654-3.559l79.337-79.321c3.062-3.06,3.062-8.022,0.001-11.083    c-3.062-3.06-8.024-3.062-11.082-0.001l-42.151,42.144c-1.36-5.088-4.013-9.886-7.97-13.843c-2.508-2.508-5.37-4.532-8.47-6.03    l210.802-210.768c3.062-3.061,3.062-8.022,0.001-11.082s-8.023-3.063-11.082-0.001L120.413,409.718    c-1.535-4.081-3.933-7.854-7.119-11.04c-3.186-3.184-6.94-5.586-11.032-7.123l252.315-252.272l18.158,18.155l-19.876,19.874    c-3.062,3.06-3.062,8.022-0.001,11.083c1.531,1.531,3.536,2.296,5.542,2.296c2.005,0,4.011-0.765,5.541-2.295l19.878-19.875    l18.159,18.157l-188.09,188.057c-3.062,3.06-3.062,8.022-0.001,11.082s8.023,3.063,11.082,0.001l189.199-189.167    c2.175,0.856,4.512,1.316,6.924,1.316c5.045,0,9.779-1.956,13.327-5.502l0.646-0.645c2.704-2.704,4.476-6.096,5.172-9.784    c3.59-0.681,7.02-2.406,9.794-5.181l0.632-0.632c2.701-2.701,4.474-6.086,5.172-9.771c3.621-0.692,7.049-2.446,9.805-5.203    l0.625-0.627c3.555-3.553,5.512-8.288,5.512-13.333c0-2.412-0.459-4.748-1.314-6.921l11.017-11.016    c3.062-3.06,3.062-8.022,0.001-11.082s-8.023-3.063-11.082-0.001l-9.912,9.91l-76.642-76.63l35.175-35.171    c0.883-0.881,2.368-0.879,3.245-0.001l73.401,73.389c0.573,0.573,0.658,1.259,0.658,1.617c0,0.359-0.086,1.047-0.659,1.621    l-3.837,3.836c-3.062,3.061-3.062,8.023-0.001,11.082c3.062,3.06,8.024,3.062,11.082,0.001l3.838-3.837    c3.384-3.385,5.249-7.896,5.25-12.702C512,86.578,510.133,82.066,506.748,78.682z M16.402,495.555l5.037-25.333l20.301,20.296    L16.402,495.555z M106.416,423.736c-0.519,2.574,0.283,5.236,2.14,7.093c1.857,1.857,4.515,2.662,7.093,2.141    c1.02-0.206,2.06-0.31,3.093-0.31c4.111,0,7.977,1.603,10.887,4.513c5.912,5.912,5.985,15.611,0.164,21.619l-17.727,17.745    l-51.834,10.304l-35.114-35.107l10.307-51.826l17.055-17.053l0.706-0.678c2.858-2.769,6.662-4.294,10.711-4.294    c4.146,0,8.018,1.588,10.901,4.47c3.661,3.66,5.233,8.884,4.203,13.973c-0.52,2.574,0.283,5.236,2.139,7.094    c1.857,1.857,4.52,2.659,7.093,2.142c1.02-0.206,2.06-0.31,3.092-0.31c4.112,0,7.979,1.603,10.888,4.511    C105.874,413.422,107.445,418.647,106.416,423.736z M91.903,379.75c-1.495-3.099-3.514-5.972-6.023-8.48    c-3.882-3.881-8.633-6.594-13.824-7.985l253.279-253.237l18.158,18.155L91.903,379.75z M423.989,180.732l-0.645,0.644    c-0.8,0.799-1.753,0.918-2.251,0.918s-1.451-0.119-2.251-0.918l-88.206-88.192c-0.799-0.798-0.918-1.751-0.918-2.248    c0-0.496,0.119-1.449,0.93-2.259l0.625-0.627c0.8-0.799,1.755-0.919,2.253-0.919c0.077,0,0.168,0.004,0.266,0.013    c0.424,0.528,0.876,1.04,1.365,1.529l88.206,88.188c0.489,0.488,1.001,0.939,1.528,1.363c0.007,0.097,0.013,0.188,0.013,0.265    C424.901,178.985,424.782,179.939,423.989,180.732z M455.187,145.042c0.8,0.799,0.918,1.751,0.918,2.248    c0,0.496-0.118,1.448-0.931,2.26l-0.625,0.627c-0.67,0.67-1.608,0.977-2.53,0.9c-0.424-0.526-0.871-1.036-1.356-1.519    l-17.762-17.76c-3.062-3.06-8.022-3.06-11.082,0.001c-3.06,3.06-3.06,8.023,0.001,11.082l17.762,17.76    c0.8,0.799,0.919,1.751,0.919,2.248s-0.119,1.449-0.925,2.254l-0.631,0.632c-1.22,1.219-3.282,1.219-4.502-0.001L346.24,77.587    c-1.22-1.22-1.22-3.283-0.006-4.497l0.642-0.641c1.22-1.22,3.284-1.22,4.505-0.001l49.541,49.532    c3.062,3.06,8.024,3.06,11.082-0.001c3.06-3.061,3.06-8.023-0.001-11.082L362.46,61.364c-0.489-0.489-1-0.939-1.528-1.364    c-0.007-0.097-0.013-0.188-0.013-0.264c0-0.497,0.119-1.45,0.913-2.244l0.643-0.642c1.219-1.22,3.283-1.221,4.505-0.001    L455.187,145.042z" fill="#888888"/>
	</g>
</g>
<g>
</g>
<g>
</g>
<g>
</g>
<g>
</g>
<g>
</g>
<g>
</g>
<g>
</g>
<g>
</g>
<g>
</g>
<g>
</g>
<g>
</g>
<g>
</g>
<g>
</g>
<g>
</g>
<g>
</g>
</svg>
