<?xml version="1.0" encoding="iso-8859-1"?>
<!-- Generator: Adobe Illustrator 19.0.0, SVG Export Plug-In . SVG Version: 6.00 Build 0)  -->
<svg xmlns="http://www.w3.org/2000/svg" xmlns:xlink="http://www.w3.org/1999/xlink" version="1.1" id="Layer_1" x="0px" y="0px" viewBox="0 0 512 512" style="enable-background:new 0 0 512 512;" xml:space="preserve" width="512px" height="512px">
<g>
	<g>
		<path d="M508.131,84.16l-40.744-40.752c-3.062-3.06-8.024-3.062-11.082,0c-3.06,3.059-3.062,8.022-0.001,11.081l22.318,22.323    l-52.427,52.437c-3.06,3.062-3.06,8.023,0.002,11.082c1.53,1.531,3.535,2.296,5.541,2.296c2.005,0,4.01-0.766,5.541-2.296    l52.425-52.436l5.498,5.499L200.302,388.354c-3.059,3.06-3.059,8.023,0.001,11.082c1.53,1.531,3.535,2.295,5.541,2.295    s4.012-0.765,5.542-2.296l296.745-296.803C513.223,97.539,513.223,89.253,508.131,84.16z" fill="#888888"/>
	</g>
</g>
<g>
	<g>
		<path d="M443.523,19.539L427.807,3.82c-2.462-2.463-5.743-3.819-9.236-3.82c-3.493,0.001-6.773,1.357-9.236,3.82L3.868,409.367    c-5.091,5.093-5.091,13.379,0,18.472l80.324,80.341c2.463,2.464,5.744,3.819,9.236,3.82c3.493,0,6.773-1.357,9.236-3.82    l86.752-86.769c3.061-3.06,3.06-8.023-0.001-11.082c-3.059-3.061-8.022-3.06-11.082,0l-84.904,84.92l-5.498-5.499l327.411-327.474    c3.059-3.06,3.059-8.023-0.002-11.082c-3.063-3.062-8.023-3.06-11.083,0.001L76.849,478.668l-60.051-60.064l15.384-15.386    l28.046,28.052c1.53,1.532,3.535,2.296,5.541,2.296c2.005,0,4.011-0.764,5.541-2.294c3.06-3.06,3.062-8.023,0.001-11.082    l-28.048-28.056l14.628-14.631l12.169,12.172c1.53,1.531,3.536,2.295,5.542,2.295c2.005,0.001,4.01-0.764,5.54-2.295    c3.062-3.06,3.062-8.022,0.001-11.082l-12.171-12.173l14.628-14.631l12.169,12.172c1.531,1.53,3.536,2.295,5.542,2.296    c2.005,0,4.01-0.766,5.541-2.296c3.061-3.06,3.062-8.022,0.001-11.081l-12.171-12.174l14.627-14.63l12.155,12.158    c1.531,1.53,3.536,2.295,5.542,2.295c2.005,0,4.01-0.765,5.541-2.295c3.062-3.059,3.062-8.022,0.002-11.081l-12.157-12.162    l14.627-14.63l27.291,27.295c1.53,1.531,3.536,2.297,5.541,2.297c2.005,0,4.01-0.765,5.541-2.296    c3.06-3.06,3.062-8.022,0.001-11.082L146.1,289.279l14.628-14.63l12.154,12.157c1.53,1.531,3.536,2.297,5.542,2.297    c2.005,0,4.011-0.766,5.541-2.296c3.06-3.06,3.062-8.022,0.001-11.082l-12.157-12.159l14.628-14.631l12.155,12.158    c1.53,1.53,3.536,2.295,5.542,2.295c2.005,0.001,4.01-0.765,5.54-2.294c3.062-3.061,3.062-8.023,0.001-11.082l-12.156-12.162    l14.626-14.629l12.154,12.156c1.53,1.532,3.535,2.296,5.541,2.296c2.005,0.001,4.01-0.765,5.541-2.294    c3.06-3.06,3.062-8.023,0.001-11.083l-12.156-12.161l14.628-14.63l27.289,27.296c1.531,1.531,3.536,2.296,5.542,2.296    c2.005-0.001,4.011-0.765,5.541-2.295c3.062-3.06,3.063-8.023,0.001-11.083l-27.292-27.297l14.628-14.631l12.154,12.157    c1.529,1.532,3.535,2.297,5.541,2.297c2.005-0.001,4.011-0.765,5.541-2.295c3.06-3.06,3.062-8.022,0.001-11.082l-12.156-12.161    l14.628-14.63l12.155,12.156c1.532,1.531,3.536,2.296,5.542,2.296c2.005,0.001,4.011-0.765,5.541-2.295    c3.062-3.06,3.062-8.022,0.001-11.081l-12.157-12.161l14.628-14.63l12.168,12.17c1.531,1.531,3.536,2.297,5.542,2.297    c2.005-0.001,4.01-0.765,5.542-2.295c3.059-3.06,3.06-8.023,0-11.083l-12.169-12.172l14.628-14.631l28.046,28.051    c1.531,1.531,3.536,2.297,5.542,2.297c2.005-0.001,4.011-0.765,5.541-2.295c3.062-3.061,3.062-8.022,0.001-11.083L351.773,83.57    L366.4,68.939l12.166,12.166c1.532,1.532,3.536,2.296,5.542,2.297c2.005-0.001,4.011-0.765,5.541-2.296    c3.062-3.059,3.062-8.023,0.002-11.082l-12.172-12.172l14.628-14.63l12.168,12.171c1.531,1.53,3.536,2.296,5.542,2.296    c2.005-0.001,4.011-0.765,5.541-2.295c3.062-3.062,3.062-8.023,0.001-11.082l-12.17-12.173l15.384-15.387L432.44,30.62    c3.062,3.061,8.024,3.063,11.082,0C446.584,27.559,446.584,22.598,443.523,19.539z" fill="#888888"/>
	</g>
</g>
<g>
	<g>
		<path d="M443.966,69.142c-4.057-4.056-9.451-6.292-15.19-6.292c-5.737,0.001-11.131,2.236-15.185,6.291    c-4.058,4.057-6.292,9.452-6.292,15.191c0,5.739,2.235,11.133,6.29,15.19c4.056,4.057,9.45,6.291,15.188,6.291    c5.738,0,11.131-2.235,15.19-6.291C452.34,91.145,452.34,77.517,443.966,69.142z M432.882,88.441    c-1.096,1.096-2.554,1.7-4.105,1.7c-1.55,0-3.007-0.604-4.104-1.701c-1.097-1.097-1.701-2.555-1.7-4.107    c0-1.552,0.603-3.01,1.702-4.11c1.096-1.096,2.552-1.699,4.102-1.7c1.551,0.001,3.008,0.605,4.105,1.701    C435.146,82.49,435.146,86.176,432.882,88.441z" fill="#888888"/>
	</g>
</g>
<g>
</g>
<g>
</g>
<g>
</g>
<g>
</g>
<g>
</g>
<g>
</g>
<g>
</g>
<g>
</g>
<g>
</g>
<g>
</g>
<g>
</g>
<g>
</g>
<g>
</g>
<g>
</g>
<g>
</g>
</svg>
